<mxfile host="app.diagrams.net" modified="2021-10-06T14:33:25.177Z" agent="5.0 (Macintosh; Intel Mac OS X 10_15_7) AppleWebKit/537.36 (KHTML, like Gecko) Chrome/94.0.4606.71 Safari/537.36" etag="UfO6NymSwgkp5wcCnRHD" version="15.4.3" type="github">
  <diagram id="kgpKYQtTHZ0yAKxKKP6v" name="Page-1">
    <mxGraphModel dx="1039" dy="735" grid="1" gridSize="10" guides="1" tooltips="1" connect="1" arrows="1" fold="1" page="1" pageScale="1" pageWidth="850" pageHeight="1100" math="0" shadow="0">
      <root>
        <mxCell id="0" />
        <mxCell id="1" parent="0" />
        <mxCell id="3nuBFxr9cyL0pnOWT2aG-1" value="교수" style="shape=umlLifeline;perimeter=lifelinePerimeter;container=1;collapsible=0;recursiveResize=0;rounded=0;shadow=0;strokeWidth=1;" parent="1" vertex="1">
          <mxGeometry x="100" y="80" width="120" height="1000" as="geometry" />
        </mxCell>
        <mxCell id="TsxpjKeLishMTqG8Xvxd-20" value="" style="rounded=0;whiteSpace=wrap;html=1;" vertex="1" parent="3nuBFxr9cyL0pnOWT2aG-1">
          <mxGeometry x="-10" y="-10" width="120" height="40" as="geometry" />
        </mxCell>
        <mxCell id="TsxpjKeLishMTqG8Xvxd-22" value="Professor" style="rounded=0;whiteSpace=wrap;html=1;" vertex="1" parent="3nuBFxr9cyL0pnOWT2aG-1">
          <mxGeometry x="-20" y="-20" width="120" height="40" as="geometry" />
        </mxCell>
        <mxCell id="3nuBFxr9cyL0pnOWT2aG-5" value="Check Git Out" style="shape=umlLifeline;perimeter=lifelinePerimeter;container=1;collapsible=0;recursiveResize=0;rounded=0;shadow=0;strokeWidth=1;" parent="1" vertex="1">
          <mxGeometry x="300" y="80" width="100" height="1000" as="geometry" />
        </mxCell>
        <mxCell id="TsxpjKeLishMTqG8Xvxd-27" value="" style="verticalAlign=bottom;endArrow=block;shadow=0;strokeWidth=1;" edge="1" parent="3nuBFxr9cyL0pnOWT2aG-5">
          <mxGeometry relative="1" as="geometry">
            <mxPoint x="-127.5" y="90.00000000000023" as="sourcePoint" />
            <mxPoint x="37.49999999999977" y="90" as="targetPoint" />
          </mxGeometry>
        </mxCell>
        <mxCell id="TsxpjKeLishMTqG8Xvxd-28" value="" style="verticalAlign=bottom;endArrow=block;shadow=0;strokeWidth=1;" edge="1" parent="3nuBFxr9cyL0pnOWT2aG-5">
          <mxGeometry relative="1" as="geometry">
            <mxPoint x="-127.5" y="200.00000000000023" as="sourcePoint" />
            <mxPoint x="37.49999999999977" y="200" as="targetPoint" />
          </mxGeometry>
        </mxCell>
        <mxCell id="TsxpjKeLishMTqG8Xvxd-1" value="Github" style="shape=umlLifeline;perimeter=lifelinePerimeter;container=1;collapsible=0;recursiveResize=0;rounded=0;shadow=0;strokeWidth=1;" vertex="1" parent="1">
          <mxGeometry x="480" y="80" width="105" height="1000" as="geometry" />
        </mxCell>
        <mxCell id="TsxpjKeLishMTqG8Xvxd-9" value="" style="verticalAlign=bottom;endArrow=block;shadow=0;strokeWidth=1;" edge="1" parent="TsxpjKeLishMTqG8Xvxd-1">
          <mxGeometry relative="1" as="geometry">
            <mxPoint x="-120" y="110.00000000000023" as="sourcePoint" />
            <mxPoint x="45" y="110" as="targetPoint" />
          </mxGeometry>
        </mxCell>
        <mxCell id="TsxpjKeLishMTqG8Xvxd-78" value="Merge The Pull Request" style="rounded=1;whiteSpace=wrap;html=1;" vertex="1" parent="TsxpjKeLishMTqG8Xvxd-1">
          <mxGeometry x="-90" y="939" width="110" height="51" as="geometry" />
        </mxCell>
        <mxCell id="TsxpjKeLishMTqG8Xvxd-79" value="" style="verticalAlign=bottom;endArrow=block;shadow=0;strokeWidth=1;" edge="1" parent="TsxpjKeLishMTqG8Xvxd-1">
          <mxGeometry x="-0.697" y="30" relative="1" as="geometry">
            <mxPoint x="47.49999999999977" y="930" as="sourcePoint" />
            <mxPoint x="-117.50000000000023" y="930" as="targetPoint" />
            <mxPoint as="offset" />
          </mxGeometry>
        </mxCell>
        <mxCell id="TsxpjKeLishMTqG8Xvxd-3" value="Student" style="shape=umlLifeline;perimeter=lifelinePerimeter;container=1;collapsible=0;recursiveResize=0;rounded=0;shadow=0;strokeWidth=1;" vertex="1" parent="1">
          <mxGeometry x="660" y="80" width="100" height="1000" as="geometry" />
        </mxCell>
        <mxCell id="TsxpjKeLishMTqG8Xvxd-10" value="&lt;meta charset=&quot;utf-8&quot;&gt;&lt;span style=&quot;color: rgb(0, 0, 0); font-family: helvetica; font-size: 11px; font-style: normal; font-weight: 400; letter-spacing: normal; text-align: center; text-indent: 0px; text-transform: none; word-spacing: 0px; background-color: rgb(255, 255, 255); display: inline; float: none;&quot;&gt;Get Students Resume Information&lt;/span&gt;" style="rounded=1;whiteSpace=wrap;html=1;" vertex="1" parent="1">
          <mxGeometry x="200" y="180" width="110" height="40" as="geometry" />
        </mxCell>
        <mxCell id="TsxpjKeLishMTqG8Xvxd-11" value="&lt;span style=&quot;font-size: 11px ; background-color: rgb(255 , 255 , 255)&quot;&gt;Fork Student&#39;s Repository to School Organization&lt;/span&gt;" style="rounded=1;whiteSpace=wrap;html=1;" vertex="1" parent="1">
          <mxGeometry x="390" y="200" width="110" height="50" as="geometry" />
        </mxCell>
        <mxCell id="3nuBFxr9cyL0pnOWT2aG-9" value="" style="verticalAlign=bottom;endArrow=block;shadow=0;strokeWidth=1;" parent="1" edge="1">
          <mxGeometry x="-0.697" y="30" relative="1" as="geometry">
            <mxPoint x="705" y="140" as="sourcePoint" />
            <mxPoint x="540" y="140" as="targetPoint" />
            <mxPoint as="offset" />
          </mxGeometry>
        </mxCell>
        <mxCell id="TsxpjKeLishMTqG8Xvxd-13" value="&lt;span style=&quot;font-size: 11px ; background-color: rgb(255 , 255 , 255)&quot;&gt;Make Resume Repository and write Resume&lt;br&gt;&lt;/span&gt;" style="rounded=1;whiteSpace=wrap;html=1;" vertex="1" parent="1">
          <mxGeometry x="570" y="150" width="110" height="50" as="geometry" />
        </mxCell>
        <mxCell id="TsxpjKeLishMTqG8Xvxd-39" value="&lt;span style=&quot;color: rgb(0 , 0 , 0) ; font-family: &amp;#34;helvetica&amp;#34; ; font-size: 11px ; font-style: normal ; font-weight: 400 ; letter-spacing: normal ; text-align: center ; text-indent: 0px ; text-transform: none ; word-spacing: 0px ; background-color: rgb(255 , 255 , 255) ; display: inline ; float: none&quot;&gt;Prof1. Write Activities&amp;nbsp;&lt;/span&gt;" style="rounded=1;whiteSpace=wrap;html=1;" vertex="1" parent="1">
          <mxGeometry x="200" y="289" width="110" height="40" as="geometry" />
        </mxCell>
        <mxCell id="TsxpjKeLishMTqG8Xvxd-41" value="" style="verticalAlign=bottom;endArrow=block;shadow=0;strokeWidth=1;" edge="1" parent="1">
          <mxGeometry relative="1" as="geometry">
            <mxPoint x="172.5" y="350.0000000000002" as="sourcePoint" />
            <mxPoint x="337.4999999999998" y="350" as="targetPoint" />
          </mxGeometry>
        </mxCell>
        <mxCell id="TsxpjKeLishMTqG8Xvxd-42" value="&lt;span style=&quot;color: rgb(0 , 0 , 0) ; font-family: &amp;#34;helvetica&amp;#34; ; font-size: 11px ; font-style: normal ; font-weight: 400 ; letter-spacing: normal ; text-align: center ; text-indent: 0px ; text-transform: none ; word-spacing: 0px ; background-color: rgb(255 , 255 , 255) ; display: inline ; float: none&quot;&gt;Prof2. Write Activities&amp;nbsp;&lt;/span&gt;" style="rounded=1;whiteSpace=wrap;html=1;" vertex="1" parent="1">
          <mxGeometry x="200" y="359" width="110" height="40" as="geometry" />
        </mxCell>
        <mxCell id="TsxpjKeLishMTqG8Xvxd-43" value="" style="verticalAlign=bottom;endArrow=block;shadow=0;strokeWidth=1;" edge="1" parent="1">
          <mxGeometry relative="1" as="geometry">
            <mxPoint x="172.5" y="420.0000000000002" as="sourcePoint" />
            <mxPoint x="337.4999999999998" y="420" as="targetPoint" />
          </mxGeometry>
        </mxCell>
        <mxCell id="TsxpjKeLishMTqG8Xvxd-44" value="&lt;span style=&quot;color: rgb(0 , 0 , 0) ; font-family: &amp;#34;helvetica&amp;#34; ; font-size: 11px ; font-style: normal ; font-weight: 400 ; letter-spacing: normal ; text-align: center ; text-indent: 0px ; text-transform: none ; word-spacing: 0px ; background-color: rgb(255 , 255 , 255) ; display: inline ; float: none&quot;&gt;Prof3. Write Activities&amp;nbsp;&lt;/span&gt;" style="rounded=1;whiteSpace=wrap;html=1;" vertex="1" parent="1">
          <mxGeometry x="200" y="429" width="110" height="40" as="geometry" />
        </mxCell>
        <mxCell id="TsxpjKeLishMTqG8Xvxd-45" value="" style="verticalAlign=bottom;endArrow=block;shadow=0;strokeWidth=1;" edge="1" parent="1">
          <mxGeometry relative="1" as="geometry">
            <mxPoint x="362.5" y="440.0000000000002" as="sourcePoint" />
            <mxPoint x="527.4999999999998" y="440" as="targetPoint" />
          </mxGeometry>
        </mxCell>
        <mxCell id="TsxpjKeLishMTqG8Xvxd-46" value="&lt;span style=&quot;color: rgb(0 , 0 , 0) ; font-family: &amp;#34;helvetica&amp;#34; ; font-size: 11px ; font-style: normal ; font-weight: 400 ; letter-spacing: normal ; text-align: center ; text-indent: 0px ; text-transform: none ; word-spacing: 0px ; background-color: rgb(255 , 255 , 255) ; display: inline ; float: none&quot;&gt;Make Commit to Student&#39;s Repo with Prof1&#39;s ID&amp;nbsp;&lt;/span&gt;" style="rounded=1;whiteSpace=wrap;html=1;" vertex="1" parent="1">
          <mxGeometry x="390" y="449" width="110" height="51" as="geometry" />
        </mxCell>
        <mxCell id="TsxpjKeLishMTqG8Xvxd-47" value="" style="verticalAlign=bottom;endArrow=block;shadow=0;strokeWidth=1;" edge="1" parent="1">
          <mxGeometry relative="1" as="geometry">
            <mxPoint x="362.5" y="520.0000000000002" as="sourcePoint" />
            <mxPoint x="527.4999999999998" y="520" as="targetPoint" />
          </mxGeometry>
        </mxCell>
        <mxCell id="TsxpjKeLishMTqG8Xvxd-48" value="&lt;span style=&quot;color: rgb(0 , 0 , 0) ; font-family: &amp;#34;helvetica&amp;#34; ; font-size: 11px ; font-style: normal ; font-weight: 400 ; letter-spacing: normal ; text-align: center ; text-indent: 0px ; text-transform: none ; word-spacing: 0px ; background-color: rgb(255 , 255 , 255) ; display: inline ; float: none&quot;&gt;Make Commit to Student&#39;s Repo with Prof2&#39;s ID&amp;nbsp;&lt;/span&gt;" style="rounded=1;whiteSpace=wrap;html=1;" vertex="1" parent="1">
          <mxGeometry x="390" y="529" width="110" height="51" as="geometry" />
        </mxCell>
        <mxCell id="TsxpjKeLishMTqG8Xvxd-52" value="" style="verticalAlign=bottom;endArrow=block;shadow=0;strokeWidth=1;" edge="1" parent="1">
          <mxGeometry relative="1" as="geometry">
            <mxPoint x="360" y="599.0000000000002" as="sourcePoint" />
            <mxPoint x="524.9999999999998" y="599" as="targetPoint" />
          </mxGeometry>
        </mxCell>
        <mxCell id="TsxpjKeLishMTqG8Xvxd-53" value="&lt;span style=&quot;color: rgb(0 , 0 , 0) ; font-family: &amp;#34;helvetica&amp;#34; ; font-size: 11px ; font-style: normal ; font-weight: 400 ; letter-spacing: normal ; text-align: center ; text-indent: 0px ; text-transform: none ; word-spacing: 0px ; background-color: rgb(255 , 255 , 255) ; display: inline ; float: none&quot;&gt;Make Commit to Student&#39;s Repo with Prof3&#39;s ID&amp;nbsp;&lt;/span&gt;" style="rounded=1;whiteSpace=wrap;html=1;" vertex="1" parent="1">
          <mxGeometry x="387.5" y="608" width="110" height="51" as="geometry" />
        </mxCell>
        <mxCell id="TsxpjKeLishMTqG8Xvxd-73" value="" style="verticalAlign=bottom;endArrow=block;shadow=0;strokeWidth=1;" edge="1" parent="1">
          <mxGeometry relative="1" as="geometry">
            <mxPoint x="360" y="680.0000000000005" as="sourcePoint" />
            <mxPoint x="524.9999999999998" y="680" as="targetPoint" />
          </mxGeometry>
        </mxCell>
        <mxCell id="TsxpjKeLishMTqG8Xvxd-74" value="Push changes to Forked Repo" style="rounded=1;whiteSpace=wrap;html=1;" vertex="1" parent="1">
          <mxGeometry x="387.5" y="689" width="110" height="51" as="geometry" />
        </mxCell>
        <mxCell id="TsxpjKeLishMTqG8Xvxd-75" value="" style="verticalAlign=bottom;endArrow=block;shadow=0;strokeWidth=1;" edge="1" parent="1">
          <mxGeometry relative="1" as="geometry">
            <mxPoint x="360" y="760.0000000000005" as="sourcePoint" />
            <mxPoint x="524.9999999999998" y="760" as="targetPoint" />
          </mxGeometry>
        </mxCell>
        <mxCell id="TsxpjKeLishMTqG8Xvxd-76" value="Make Pull Request about changes" style="rounded=1;whiteSpace=wrap;html=1;" vertex="1" parent="1">
          <mxGeometry x="387.5" y="769" width="110" height="51" as="geometry" />
        </mxCell>
        <mxCell id="TsxpjKeLishMTqG8Xvxd-70" value="&lt;span style=&quot;color: rgb(0 , 0 , 0) ; font-family: &amp;#34;helvetica&amp;#34; ; font-size: 11px ; font-style: normal ; font-weight: 400 ; letter-spacing: normal ; text-align: center ; text-indent: 0px ; text-transform: none ; word-spacing: 0px ; background-color: rgb(255 , 255 , 255) ; display: inline ; float: none&quot;&gt;Alert &lt;br&gt;Resume has changed&lt;/span&gt;" style="rounded=1;whiteSpace=wrap;html=1;" vertex="1" parent="1">
          <mxGeometry x="475" y="849" width="110" height="51" as="geometry" />
        </mxCell>
        <mxCell id="TsxpjKeLishMTqG8Xvxd-71" value="&lt;span style=&quot;font-size: 11px ; background-color: rgb(255 , 255 , 255)&quot;&gt;Accept Change of Resume&lt;br&gt;&lt;/span&gt;" style="rounded=1;whiteSpace=wrap;html=1;" vertex="1" parent="1">
          <mxGeometry x="475" y="927" width="110" height="50" as="geometry" />
        </mxCell>
        <mxCell id="TsxpjKeLishMTqG8Xvxd-69" value="" style="verticalAlign=bottom;endArrow=block;shadow=0;strokeWidth=1;" edge="1" parent="1">
          <mxGeometry relative="1" as="geometry">
            <mxPoint x="360" y="840.0000000000002" as="sourcePoint" />
            <mxPoint x="699.9999999999998" y="840" as="targetPoint" />
          </mxGeometry>
        </mxCell>
        <mxCell id="TsxpjKeLishMTqG8Xvxd-72" value="" style="verticalAlign=bottom;endArrow=block;shadow=0;strokeWidth=1;" edge="1" parent="1">
          <mxGeometry x="-0.697" y="30" relative="1" as="geometry">
            <mxPoint x="704.9999999999998" y="917" as="sourcePoint" />
            <mxPoint x="360" y="917" as="targetPoint" />
            <mxPoint as="offset" />
          </mxGeometry>
        </mxCell>
      </root>
    </mxGraphModel>
  </diagram>
</mxfile>
